<?xml version="1.0" encoding="utf-8"?>
<!DOCTYPE svg PUBLIC "-//W3C//DTD SVG 1.1//EN" "http://www.w3.org/Graphics/SVG/1.1/DTD/svg11.dtd">
<svg version="1.1" id="Layer_1" xmlns="http://www.w3.org/2000/svg" xmlns:xlink="http://www.w3.org/1999/xlink" x="0px" y="0px" width="558.826px" height="218.715px" viewBox="16.387 129.295 558.826 218.715" xml:space="preserve">
	<rect x="467.528" y="296.675" fill="#FFFFFF" width="51.334" height="51"/>
	<path fill="#FFFFFF" d="M124.574,180.629H73.072c0-28.426,22.741-51.334,51-51.334c0.167,0,0.334,0,0.501,0V180.629z"/>
	<polygon fill="#FFFFFF" points="298.476,129.295 298.476,180.629 298.643,180.629 349.977,129.462 349.977,129.295 "/>
	<rect x="16.554" y="185.479" fill="#FFFFFF" width="51.334" height="51"/>
	<polygon fill="#FFFFFF" points="298.643,185.479 298.476,185.479 298.476,236.813 349.977,236.813 349.977,236.813 "/>
	<rect x="73.072" y="185.479" fill="#FFFFFF" width="51.334" height="51"/>
	<path fill="#FFFFFF" d="M16.554,180.629h51.334c0-28.259-22.741-51.334-51-51.334c-0.167,0-0.334,0-0.502,0v51.334H16.554z"/>
	<path fill="#FFFFFF" d="M180.757,180.629h-51.334c0-28.426,22.741-51.334,51-51.334c0.167,0,0.334,0,0.502,0v51.334H180.757z"/>
	<rect x="129.423" y="185.479" fill="#FFFFFF" width="51.334" height="51"/>
	<rect x="186.275" y="185.479" fill="#FFFFFF" width="51.334" height="51"/>
	<path fill="#FFFFFF" d="M186.275,180.629h51.334c0-28.426-22.741-51.334-51-51.334c-0.167,0-0.334,0-0.501,0v51.334H186.275z"/>
	<rect x="242.626" y="129.295" fill="#FFFFFF" width="51.334" height="51"/>
	<rect x="242.626" y="185.479" fill="#FFFFFF" width="51.334" height="51"/>
	<polygon fill="#FFFFFF" points="411.512,129.295 411.512,129.462 462.679,180.629 462.846,180.629 462.846,129.295 "/>
	<rect x="355.16" y="129.295" fill="#FFFFFF" width="51.335" height="51"/>
	<rect x="355.16" y="185.479" fill="#FFFFFF" width="51.335" height="51"/>
	<polygon fill="#FFFFFF" points="411.512,236.813 411.512,236.813 462.846,236.813 462.846,185.479 462.679,185.479 "/>
	<polygon fill="#FFFFFF" points="523.879,185.479 523.879,236.813 523.879,236.813 575.213,185.646 575.213,185.479 "/>
	<polygon fill="#FFFFFF" points="575.046,129.295 523.879,180.629 523.879,180.629 575.213,180.629 575.213,129.295 "/>
	<path fill="#FFFFFF" d="M73.072,296.675h51.334c0,28.426-22.741,51.334-51,51.334c-0.167,0-0.334,0-0.502,0v-51.334H73.072z"/>
	<rect x="73.072" y="240.993" fill="#FFFFFF" width="51.334" height="51"/>
	<rect x="16.554" y="240.993" fill="#FFFFFF" width="51.334" height="51"/>
	<path fill="#FFFFFF" d="M67.889,296.675H16.554c0,28.426,22.741,51.334,51,51.334c0.167,0,0.334,0,0.501,0v-51.334H67.889z"/>
	<path fill="#FFFFFF" d="M237.777,292.328h-51.334c0-28.427,22.741-51.335,51-51.335c0.167,0,0.334,0,0.502,0v51.335H237.777z"/>
	<path fill="#FFFFFF" d="M242.626,292.328h51.334c0-28.427-22.741-51.335-51-51.335c-0.167,0-0.334,0-0.501,0v51.335H242.626z"/>
	<path fill="#FFFFFF" d="M186.275,296.675h51.334c0,28.426-22.741,51.334-51,51.334c-0.167,0-0.334,0-0.501,0v-51.334H186.275z"/>
	<path fill="#FFFFFF" d="M180.757,296.675h-51.334c0,28.426,22.741,51.334,51,51.334c0.167,0,0.334,0,0.502,0v-51.334H180.757z"/>
	<polygon fill="#FFFFFF" points="406.495,292.328 406.662,292.328 406.662,240.993 355.16,240.993 355.16,240.993 "/>
	<rect x="298.476" y="240.993" fill="#FFFFFF" width="51.334" height="51"/>
	<rect x="298.476" y="296.675" fill="#FFFFFF" width="51.334" height="51"/>
	<polygon fill="#FFFFFF" points="406.495,296.675 355.16,348.01 355.16,348.01 406.662,348.01 406.662,296.675 "/>
</svg>
